<?xml version="1.0" encoding="utf-8"?>
<!-- Generator: Adobe Illustrator 16.0.0, SVG Export Plug-In . SVG Version: 6.00 Build 0)  -->
<!DOCTYPE svg PUBLIC "-//W3C//DTD SVG 1.1//EN" "http://www.w3.org/Graphics/SVG/1.1/DTD/svg11.dtd">
<svg version="1.1" id="图层_1" xmlns="http://www.w3.org/2000/svg" xmlns:xlink="http://www.w3.org/1999/xlink" x="0px" y="0px"
	 width="231.372px" height="111.765px" viewBox="0 0 231.372 111.765" enable-background="new 0 0 231.372 111.765"
	 xml:space="preserve">
<path fill="#FFFFFF" d="M18.876,52.246c0-2.451-0.384-2.931-1.736-3.651l-0.913-0.483c-0.286-0.096-0.382-0.146-0.382-0.339v-0.284
	c0-0.194,0.096-0.295,0.382-0.433l4.76-2.455c0.289-0.142,0.483-0.193,0.676-0.193c0.29,0,0.334,0.289,0.334,0.578l0.244,3.416h0.19
	c1.444-2.212,3.702-4.186,5.773-4.186c1.634,0,2.448,1.011,2.448,2.117c0,1.395-1.151,2.355-2.017,2.355
	c-0.53,0-1.009-0.19-1.395-0.38c-0.386-0.239-0.966-0.387-1.584-0.387c-0.771,0-2.021,0.48-2.844,2.019
	c-0.284,0.528-0.481,1.396-0.481,1.539v10.004c0,1.488,0.341,1.971,1.351,1.971h2.257c0.29,0,0.336,0.141,0.336,0.43v0.864
	c0,0.288-0.046,0.435-0.239,0.435c-0.289,0-2.501-0.147-5.097-0.147c-2.98,0-5,0.147-5.29,0.147c-0.19,0-0.289-0.096-0.289-0.48
	v-0.818c0-0.334,0.098-0.43,0.53-0.43h1.877c0.721,0,1.056-0.291,1.056-0.916c0.05-1.587,0.05-3.267,0.05-5.77V52.246z"/>
<path fill="#FFFFFF" d="M39.261,62.296c-2.208-2.641-2.645-4.421-2.645-7.838c0-2.451,1.3-5.527,4.137-7.739
	c2.498-1.925,4.857-2.311,6.442-2.311c2.644,0,5.288,1.35,6.734,2.792c2.163,2.213,3.27,4.71,3.27,7.837
	c0,5.238-4.716,10.578-10.629,10.578C44.262,65.615,41.28,64.703,39.261,62.296 M53.158,54.554c0-5.338-3.893-8.7-6.344-8.7
	c-1.298,0-2.552,0.286-3.705,1.539c-1.874,1.923-2.549,3.894-2.549,7.548c0,2.692,0.291,4.521,1.829,6.732
	c1.106,1.586,2.501,2.502,4.759,2.502C50.804,64.174,53.158,59.7,53.158,54.554"/>
<path fill="#FFFFFF" d="M66.812,64.221c-0.236-0.144-0.236-0.432-0.284-0.671l-0.817-4.568C65.66,58.737,65.81,58.646,66,58.594
	l0.627-0.145c0.186-0.046,0.335,0.05,0.428,0.289l1.199,2.356c0.965,1.78,1.641,2.983,4.188,2.983c1.682,0,3.796-1.01,3.796-3.269
	c0-2.163-1.054-3.414-4.664-4.426c-2.833-0.82-5.669-2.31-5.669-6.106c0-3.315,3.121-5.869,6.731-5.869
	c2.311,0,3.559,0.578,4.421,1.011c0.72,0.334,0.818,0.578,0.867,0.865l0.723,3.366c0,0.192-0.099,0.337-0.336,0.432l-0.581,0.195
	c-0.191,0.05-0.289,0-0.43-0.242l-1.636-2.21c-0.578-0.913-1.49-1.878-3.368-1.878c-1.822,0-3.701,1.106-3.701,3.177
	c0,2.787,2.258,3.319,4.612,3.991c3.515,1.009,5.726,2.449,5.773,6.157c-0.048,3.892-3.22,6.343-7.306,6.343
	C69.314,65.615,67.395,64.655,66.812,64.221"/>
<path fill="#FFFFFF" d="M91.147,52.246c-0.098,0.435-0.144,1.201-0.144,2.308c0,4.718,2.981,8.275,6.828,8.275
	c2.933,0,4.999-1.685,5.817-3.275c0.096-0.188,0.289-0.283,0.433-0.238l0.628,0.34c0.145,0.044,0.234,0.187,0,0.717
	c-0.869,1.924-3.371,5.242-7.651,5.242c-2.739,0-5.769-0.817-7.546-3.416c-1.684-2.451-2.116-4.23-2.116-7.595
	c0-1.876,0.482-5.097,3.029-7.643c2.065-2.118,4.473-2.55,6.875-2.55c5.53,0,7.069,5.189,7.069,7.067
	c0,0.674-0.574,0.767-1.346,0.767H91.147z M98.793,50.802c0.912,0,1.298-0.236,1.298-0.673c0-1.102-0.577-4.276-3.701-4.276
	c-2.113,0-4.136,1.392-5.049,4.949H98.793z"/>
<path fill="#FFFFFF" d="M115.236,62.296c-2.212-2.641-2.644-4.421-2.644-7.838c0-2.451,1.301-5.527,4.135-7.739
	c2.5-1.925,4.855-2.311,6.447-2.311c2.64,0,5.284,1.35,6.731,2.792c2.164,2.213,3.27,4.71,3.27,7.837
	c0,5.238-4.717,10.578-10.629,10.578C120.237,65.615,117.258,64.703,115.236,62.296 M129.136,54.554c0-5.338-3.898-8.7-6.352-8.7
	c-1.291,0-2.547,0.286-3.699,1.539c-1.873,1.923-2.548,3.894-2.548,7.548c0,2.692,0.288,4.521,1.826,6.732
	c1.108,1.586,2.499,2.502,4.765,2.502C126.78,64.174,129.136,59.7,129.136,54.554"/>
<path fill="#FFFFFF" d="M160.971,62.443c0,0.768,0.426,1.011,1.057,1.011h1.539c0.431,0,0.526,0.141,0.526,0.43v0.768
	c0,0.339-0.096,0.531-0.386,0.531c-0.335,0-1.827-0.142-4.566-0.142c-2.452,0-3.989,0.142-4.326,0.142
	c-0.29,0-0.386-0.142-0.386-0.531v-0.768c0-0.334,0.147-0.43,0.625-0.43h1.396c0.527,0,0.913-0.244,0.96-1.108
	c0.05-1.249,0.097-2.792,0.097-4.039v-6.351c0-1.92,0-3.314-1.394-4.325c-1.154-0.867-2.307-0.867-3.513-0.867
	c-0.764,0-2.45,0.339-3.892,1.877c-0.965,1.061-1.107,2.354-1.107,3.269v9.955c0,1.299,0.143,1.589,1.154,1.589h1.202
	c0.386,0,0.48,0.141,0.48,0.481v0.817c0,0.288-0.095,0.43-0.339,0.43c-0.336,0-1.63-0.142-4.183-0.142
	c-2.45,0-3.989,0.142-4.278,0.142c-0.24,0-0.336-0.142-0.336-0.43v-0.869c0-0.289,0.096-0.43,0.481-0.43h1.392
	c0.631,0,0.959-0.148,0.959-0.966V51.24c0-1.445-0.765-2.259-1.97-2.838l-0.381-0.193c-0.334-0.14-0.386-0.288-0.386-0.431v-0.243
	c0-0.24,0.194-0.384,0.434-0.482l4.136-2.306c0.381-0.193,0.67-0.339,0.863-0.339c0.238,0,0.335,0.193,0.386,0.578l0.335,2.935
	h0.098c1.395-1.732,4.188-3.513,6.586-3.513c1.443,0,2.935,0.289,4.088,1.059c1.443,0.96,2.648,3.367,2.648,4.568V62.443z"/>
<path fill="#FFFFFF" d="M177.896,50.708c0,2.502,0,9.765,0.05,11.253c0.046,0.818,0.238,1.494,1.249,1.494h2.164
	c0.431,0,0.525,0.141,0.525,0.43v0.818c0,0.288-0.095,0.48-0.284,0.48c-0.339,0-2.455-0.147-5.435-0.147
	c-3.081,0-5.001,0.147-5.432,0.147c-0.245,0-0.341-0.192-0.341-0.48v-0.818c0-0.334,0.096-0.43,0.627-0.43h2.308
	c0.527,0,1.009-0.342,1.06-1.204c0.047-1.491,0.047-9.762,0.047-12.548v-3.031c0-3.415-0.047-7.792-0.148-9.04
	c-0.092-1.635-0.862-2.404-2.399-2.888l-0.967-0.334c-0.237-0.098-0.283-0.142-0.283-0.24v-0.386c0-0.146,0.142-0.237,0.433-0.334
	c1.681-0.772,3.847-1.639,5.624-2.792c0.433-0.291,0.721-0.386,1.007-0.386c0.338,0,0.434,0.246,0.388,0.868
	c-0.05,2.644-0.191,12.644-0.191,15.288V50.708z"/>
<path fill="#FFFFFF" d="M187.464,75.669c0-1.011,1.061-1.878,2.213-1.878c0.911,0,1.775,0.436,2.208,0.531
	c0.34,0.047,0.726,0,1.015-0.288c0.719-0.868,3.173-6.354,3.848-8.226c-0.242-1.203-5.342-16.253-5.727-17.263
	c-0.576-1.203-1.009-2.019-2.258-2.019h-1.254c-0.331,0-0.381-0.142-0.381-0.433v-0.96c0-0.193,0.05-0.339,0.381-0.339
	c0.435,0,1.589,0.146,4.427,0.146c2.451,0,3.943-0.146,4.472-0.146c0.386,0,0.432,0.146,0.432,0.339v1.007
	c0,0.245-0.046,0.386-0.286,0.386h-0.913c-0.529,0-0.72,0.337-0.63,1.055c0.146,1.061,3.417,11.69,3.949,12.746h0.189
	c0.482-0.773,4.662-10.772,4.954-11.975c0.285-1.201-0.096-1.826-0.816-1.826h-0.771c-0.29,0-0.336-0.142-0.336-0.386v-0.961
	c0-0.239,0.046-0.384,0.287-0.384c0.625,0,1.637,0.146,3.945,0.146c1.293,0,2.404-0.146,2.935-0.146
	c0.284,0,0.284,0.192,0.284,0.384v0.915c0,0.291,0,0.433-0.237,0.433h-0.771c-0.53,0-1.201,0.243-1.684,0.866
	c-1.056,1.296-4.233,8.655-7.552,16.203c-2.357,5.334-4.23,9.809-5.095,11.396c-0.674,1.251-1.541,3.129-4.085,3.129
	C188.376,78.12,187.464,77.108,187.464,75.669"/>
<path fill="#FFFFFF" d="M212.467,62.779c0-0.818,0.579-2.697,2.981-2.697c1.399,0,2.693,1.111,2.693,2.889
	c0,1.586-1.201,2.644-2.693,2.644C214.392,65.615,212.467,65.041,212.467,62.779"/>
</svg>
