<?xml version="1.0" encoding="utf-8"?>
<!-- Generator: Adobe Illustrator 16.0.0, SVG Export Plug-In . SVG Version: 6.00 Build 0)  -->
<!DOCTYPE svg PUBLIC "-//W3C//DTD SVG 1.1//EN" "http://www.w3.org/Graphics/SVG/1.1/DTD/svg11.dtd">
<svg version="1.1" id="图层_1" xmlns="http://www.w3.org/2000/svg" xmlns:xlink="http://www.w3.org/1999/xlink" x="0px" y="0px"
	 width="231.372px" height="111.765px" viewBox="0 0 231.372 111.765" enable-background="new 0 0 231.372 111.765"
	 xml:space="preserve">
<path fill="#414141" d="M48.37,38.608L48.37,38.608c0.003,0,0.022,0.013,0.067,0.025l0.556,0.168
	c1.022,0.314,1.483,0.859,1.543,1.816c0.051,0.716,0.112,3.107,0.112,5.115v8.787c0,0.922-0.559,1.166-0.854,1.166H48.73
	c-0.18,0-0.231,0.017-0.244,0.025c0,0.002-0.002,0.016-0.002,0.05v0.529c0,0.135,0.031,0.135,0.074,0.135
	c0.057,0,0.162-0.006,0.322-0.013c0.5-0.024,1.545-0.07,3.16-0.07c1.469,0,2.551,0.046,3.069,0.07
	c0.177,0.007,0.297,0.013,0.351,0.013v0.149l0.001-0.149c0.003-0.004,0.027-0.043,0.027-0.135v-0.502
	c0-0.066-0.009-0.082-0.011-0.084c-0.002,0-0.033-0.019-0.178-0.019h-1.072c-0.758,0-0.822-0.549-0.877-1.035
	c-0.056-0.853-0.056-3.66-0.056-5.01V45.6c0-1.635,0.056-7.414,0.112-8.91c0-0.346-0.087-0.346-0.13-0.346
	c-0.093,0-0.278,0.059-0.569,0.156c-0.982,0.615-3.477,1.404-4.214,1.634c-0.106,0.031-0.127,0.087-0.127,0.087l0.002,0.329
	C48.37,38.571,48.37,38.595,48.37,38.608"/>
<path fill="#414141" d="M66.833,44.592c-1.537,0-2.812,0.432-3.898,1.316c-1.697,1.365-2.3,3.3-2.3,4.544
	c0,1.625,0.237,2.782,1.479,4.255c1.121,1.346,2.531,1.972,4.433,1.972c1.844,0,3.479-0.7,4.605-1.973
	c1.088-1.19,1.713-2.709,1.713-4.168c0-1.634-0.623-3.05-1.902-4.331C70.206,45.471,68.874,44.592,66.833,44.592 M66.778,55.796
	c-1.072,0-1.797-0.394-2.345-1.272c-0.762-1.213-0.895-2.252-0.895-3.985c0-2.081,0.347-3.289,1.242-4.312
	c0.492-0.548,1.088-0.802,1.877-0.802c1.484,0,3.072,2.019,3.072,5.027C69.729,53.698,68.571,55.796,66.778,55.796"/>
<path fill="#414141" d="M89.285,44.815c-0.064,0-0.166,0.008-0.309,0.018c-0.363,0.025-0.971,0.07-1.887,0.07
	c-1.035,0-1.646-0.041-2.051-0.067c-0.184-0.013-0.316-0.021-0.42-0.021c-0.047,0-0.064,0.006-0.072,0.008
	c0.002,0.002-0.002,0.016-0.002,0.041v0.621c0,0.056,0.012,0.074,0.012,0.074l0.455-0.003c0.26,0,0.49,0.113,0.646,0.321
	c0.205,0.275,0.248,0.679,0.119,1.107c-0.389,1.297-2.039,5.289-2.426,6.192l-0.039,0.091h-0.363l-0.037-0.092
	c-0.121-0.293-1.322-3.42-1.408-3.654l-0.082-0.24c-0.436-1.299-0.883-2.678-0.883-3.094c0-0.371,0.316-0.632,0.768-0.632h0.451
	c0.051,0,0.074,0,0.074-0.126v-0.537c0-0.048-0.006-0.062-0.006-0.065s0.01-0.013-0.125-0.013c-0.102,0-0.238,0.008-0.43,0.02
	c-0.438,0.025-1.168,0.068-2.385,0.068c-1.664,0-2.373-0.045-2.753-0.071c-0.293-0.021-0.451-0.009-0.459,0
	c0.002,0-0.004,0.016-0.004,0.062v0.592c0,0.041,0.004,0.062,0.008,0.068h0.002c0.006,0,0.018,0.003,0.037,0.003h0.537
	c0.579,0,0.847,0.284,1.312,1.089c0.246,0.402,1.408,3.519,1.525,3.842c0.299,0.761,2.299,5.44,2.455,5.694
	c0.24,0.455,0.369,0.578,0.602,0.578c0.227,0,0.361-0.12,0.574-0.508c0.059-0.115,0.51-1.14,0.99-2.226
	c0.66-1.492,1.408-3.18,1.613-3.609l0.186-0.393c0.834-1.761,1.762-3.674,2.199-4.115c0.336-0.293,0.824-0.353,1.178-0.353h0.471
	c0.035,0,0.047-0.008,0.047-0.01c0,0,0.01-0.013,0.01-0.062v-0.621c0-0.023-0.002-0.033-0.004-0.035
	C89.414,44.829,89.408,44.815,89.285,44.815"/>
<path fill="#414141" d="M101.913,53.407l-0.418-0.239c-0.025-0.014-0.041-0.017-0.045-0.017c-0.016,0-0.047,0.031-0.084,0.099
	c-0.516,0.784-1.537,1.706-3.527,1.706c-1.592,0-3.8-1.633-3.8-4.697v-1.017h6.938c0.576,0,0.633-0.058,0.633-0.308
	c0-1.109-1.004-4.342-4.082-4.342c-2.362,0-3.61,0.529-4.772,2.022c-1.143,1.494-1.336,2.461-1.336,4.063
	c0,1.655,0.26,3.062,1.533,4.53c0.898,1.033,2.072,1.472,3.927,1.472c2.779,0,4.244-1.578,4.986-2.901
	C102.026,53.483,101.972,53.446,101.913,53.407 M94.125,48.346c0.379-1.996,1.297-3.011,2.733-3.011
	c1.393,0,1.887,1.427,1.887,2.648c0,0.261-0.283,0.54-1.078,0.54h-3.575L94.125,48.346z"/>
<path fill="#414141" d="M55.832,64.59c-1.131,0-2.285,0.871-3.248,2.451l-0.041,0.07h-0.323l-0.274-2.203
	c-0.019-0.138-0.054-0.21-0.1-0.21c-0.111,0-0.192,0.034-0.312,0.079l-0.082,0.031l-3.391,1.587
	c-0.139,0.072-0.139,0.088-0.139,0.121v0.174c0.004,0.018,0.022,0.041,0.125,0.076l0.531,0.293c0.896,0.477,1.142,0.975,1.142,2.32
	v5.506c0,0.582-0.312,0.904-0.875,0.904h-0.991c-0.064,0-0.09,0.008-0.098,0.008c0.002,0.006-0.004,0.021-0.004,0.068v0.613
	c0,0.027,0.004,0.043,0.006,0.049c0.008,0,0.016,0.002,0.045,0.002c0.055,0,0.165-0.004,0.328-0.014
	c0.484-0.023,1.486-0.072,2.957-0.072c1.57,0,2.658,0.051,3.181,0.074c0.224,0.01,0.315,0.016,0.34,0.01
	c-0.001-0.006,0.001-0.021,0.001-0.049V75.84c0-0.023-0.002-0.041-0.004-0.047c-0.004-0.002-0.023-0.002-0.064-0.002h-1.239
	c-0.774,0-0.933-0.533-0.933-1.332v-5.363c0-0.395,0.125-1.033,0.354-1.445c0.383-0.658,0.946-0.891,1.31-0.891
	c0.364,0,0.66,0.088,0.881,0.26c0.131,0.059,0.453,0.189,0.86,0.189c0.677,0,1.367-0.688,1.367-1.365
	C57.141,65.106,56.603,64.59,55.832,64.59"/>
<path fill="#414141" d="M66.833,64.699c-1.535,0-2.81,0.433-3.898,1.323c-1.697,1.357-2.3,3.293-2.3,4.537
	c0,1.631,0.238,2.789,1.486,4.254c1.114,1.346,2.518,1.971,4.426,1.971c1.842,0,3.477-0.701,4.605-1.973
	c1.104-1.213,1.713-2.693,1.713-4.17c0-1.633-0.623-3.049-1.902-4.33C70.206,65.577,68.874,64.699,66.833,64.699 M66.778,75.904
	c-1.068,0-1.791-0.393-2.343-1.275c-0.764-1.213-0.896-2.25-0.896-3.988c0-2.082,0.347-3.289,1.242-4.309
	c0.502-0.553,1.1-0.808,1.877-0.808c1.486,0,3.076,2.023,3.076,5.035C69.733,73.807,68.573,75.904,66.778,75.904"/>
<path fill="#414141" d="M82.523,69.328c-1.645-0.438-2.645-0.795-2.645-2.082c0-0.998,0.9-1.751,2.092-1.751
	c1.029,0,1.58,0.599,1.877,0.921l1.375,1.549c0.012,0.029,0.023,0.039,0.027,0.039l0.486-0.225c0.006-0.025,0.01-0.088-0.008-0.16
	l-0.371-1.918c-0.016-0.101-0.059-0.186-0.457-0.405c-0.732-0.401-1.604-0.597-2.658-0.597c-1.102,0-1.867,0.244-2.832,0.899
	c-0.904,0.649-1.363,1.6-1.363,2.823c0,1.635,1.053,2.707,3.314,3.367c1.857,0.535,2.801,1.041,2.801,2.334
	c0,1.082-0.898,1.867-2.139,1.867c-1.471,0-2.041-0.754-2.537-1.596l-0.959-1.596c-0.018,0-0.047,0.004-0.066,0.008l-0.518,0.168
	c0.01,0,0.01,0.016,0.016,0.045l0.447,2.848c0.02,0.059,0.088,0.131,0.188,0.23c0.283,0.227,1.484,0.686,2.93,0.686
	c2.668,0,4.531-1.602,4.531-3.891c0-0.955-0.23-1.576-0.795-2.146C84.521,69.961,83.729,69.641,82.523,69.328"/>
<path fill="#414141" d="M101.915,73.52l-0.42-0.248c-0.021-0.008-0.037-0.012-0.043-0.012c-0.021,0-0.057,0.039-0.088,0.096
	c-0.514,0.785-1.535,1.703-3.525,1.703c-1.592,0-3.8-1.629-3.8-4.691v-1.021h6.938c0.572,0,0.633-0.061,0.633-0.301
	c0-1.113-1.004-4.346-4.082-4.346c-2.36,0-3.608,0.531-4.772,2.026c-1.143,1.494-1.336,2.461-1.336,4.061
	c0,1.656,0.258,3.062,1.531,4.533c0.896,1.027,2.07,1.465,3.929,1.465c2.789,0,4.25-1.58,4.986-2.904
	C102.024,73.59,101.972,73.555,101.915,73.52 M94.125,68.453c0.379-2,1.297-3.014,2.733-3.014c1.393,0,1.887,1.428,1.887,2.653
	c0,0.26-0.283,0.539-1.078,0.539h-3.575L94.125,68.453z"/>
<path fill="#414141" d="M112.14,64.699c-1.533,0-2.805,0.433-3.887,1.323c-1.701,1.354-2.303,3.289-2.303,4.537
	c0,1.633,0.236,2.793,1.48,4.254c1.115,1.346,2.521,1.971,4.43,1.971c1.836,0,3.475-0.701,4.613-1.973
	c1.094-1.213,1.697-2.695,1.697-4.17c0-1.635-0.619-3.053-1.895-4.33C115.517,65.577,114.181,64.699,112.14,64.699 M112.083,75.904
	c-1.062,0-1.783-0.393-2.34-1.275c-0.754-1.205-0.889-2.248-0.889-3.988c0-2.096,0.35-3.303,1.244-4.309
	c0.496-0.553,1.094-0.808,1.883-0.808c1.48,0,3.064,2.023,3.064,5.035C115.046,73.807,113.884,75.904,112.083,75.904"/>
<path fill="#414141" d="M135.923,75.791c-0.25,0-0.83-0.092-0.83-0.936c0-0.246,0.006-0.627,0.016-1.051
	c0.01-0.535,0.021-1.143,0.021-1.645v-4.039c0-1.045-0.248-1.877-1.484-2.778c-0.525-0.43-1.324-0.645-2.379-0.645
	c-0.729,0-1.42,0.207-2.174,0.652c-0.486,0.245-0.98,0.645-1.373,1.096l-0.043,0.055h-0.361l-0.246-1.589
	c-0.055-0.214-0.146-0.214-0.186-0.214c-0.092,0-0.207,0.062-0.342,0.133c-0.051,0.026-0.104,0.053-0.156,0.079l-3.088,1.466
	c-0.135,0.039-0.195,0.105-0.195,0.141v0.23c0,0.027,0,0.09,0.127,0.135l0.238,0.121c0.586,0.291,1.258,0.754,1.258,1.76v6.316
	c0,0.445-0.328,0.711-0.879,0.711h-0.555c-0.098,0-0.127,0.012-0.133,0.016c0,0.002-0.004,0.018-0.004,0.061V76.4
	c0,0.09,0.021,0.127,0.027,0.133c0.035-0.002,0.115-0.008,0.232-0.014c0.4-0.023,1.238-0.074,2.564-0.074
	c1.291,0,2.051,0.051,2.418,0.074c0.111,0.006,0.186,0.012,0.223,0.012c0.043,0,0.076,0,0.076-0.131v-0.508
	c0-0.072-0.008-0.088-0.01-0.092c-0.004,0-0.031-0.01-0.125-0.01h-0.5c-0.682,0-0.682-0.828-0.682-1.102v-5.787
	c0-0.666,0.107-1.572,0.627-2.098c0.564-0.514,1.205-0.773,1.91-0.773c0.633,0,1.178,0,1.783,0.551
	c0.727,0.6,0.779,1.387,0.779,2.514v3.232c0,1.129-0.033,1.924-0.113,2.656c-0.088,0.748-0.52,0.807-0.65,0.807h-0.566
	c-0.135,0-0.174,0.014-0.184,0.02c0.002,0.002-0.002,0.018-0.002,0.057v0.482c0,0.182,0.033,0.182,0.074,0.182
	c0.037,0,0.117-0.006,0.24-0.012c0.396-0.023,1.23-0.074,2.514-0.074c1.469,0,2.328,0.049,2.742,0.072
	c0.258,0.014,0.342,0.01,0.357,0.006c0-0.004,0.004-0.016,0.004-0.043V75.84c-0.004-0.027-0.035-0.049-0.186-0.049H135.923z"/>
<path fill="#414141" d="M147.376,75.791h-1.064c-0.76,0-0.824-0.549-0.885-1.029c-0.051-0.855-0.051-3.668-0.051-5.018v-4.045
	c0-1.501,0.051-7.379,0.113-8.902c0-0.353-0.09-0.353-0.133-0.353c-0.076,0-0.227,0.052-0.459,0.123l-0.104,0.035
	c-1.053,0.655-3.697,1.478-4.219,1.636c-0.088,0.028-0.123,0.079-0.129,0.092l0.002,0.328c0,0.021,0,0.043,0.002,0.055l0,0
	c0.006,0,0.023,0.008,0.066,0.022l0.555,0.168c1.029,0.321,1.488,0.866,1.539,1.821c0.059,0.736,0.113,3.176,0.113,5.119v8.785
	c0,0.916-0.533,1.162-0.85,1.162h-1.07c-0.178,0-0.225,0.018-0.236,0.023c0.002,0-0.002,0.018-0.002,0.053V76.4
	c0,0.131,0.031,0.131,0.076,0.131c0.055,0,0.158-0.006,0.32-0.012c0.5-0.023,1.541-0.074,3.158-0.074
	c1.469,0,2.549,0.049,3.066,0.072c0.18,0.008,0.301,0.014,0.355,0.014v0.148l0.002-0.148c0.002-0.004,0.021-0.043,0.021-0.131
	v-0.508c0-0.066-0.008-0.082-0.01-0.084C147.554,75.809,147.521,75.791,147.376,75.791"/>
<path fill="#414141" d="M153.931,81.699c-0.189,0.195-0.604,0.23-0.896,0.086c-0.238-0.121-0.701-0.32-1.168-0.32
	c-0.66,0-1.197,0.562-1.197,1.256c0,0.814,0.617,1.365,1.535,1.365c1.314,0,1.857-0.895,2.291-1.609l0.111-0.178
	c0.355-0.639,1.066-2.189,1.973-4.156c0.346-0.75,0.719-1.557,1.105-2.395c2.045-4.605,3.928-8.801,4.508-9.549
	c0.385-0.484,0.916-0.537,1.125-0.537h0.34c0.023,0.014,0.021-0.014,0.021-0.073V65c0-0.051-0.01-0.066-0.01-0.068
	c-0.002,0-0.01-0.005-0.039-0.005c-0.084,0-0.217,0.01-0.391,0.021c-0.344,0.023-0.861,0.059-1.496,0.059
	c-1.031,0-1.615-0.037-2-0.061c-0.174-0.011-0.299-0.02-0.406-0.02c-0.053,0-0.066,0.01-0.066,0.01s-0.012,0.016-0.012,0.063v0.618
	c0.006,0.035,0.021,0.044,0.078,0.044h0.445c0.344,0,0.529,0.141,0.623,0.258c0.174,0.217,0.211,0.551,0.111,0.994
	c-0.145,0.619-2.117,5.434-2.617,6.49l-0.041,0.084h-0.305l-0.039-0.088c-0.305-0.668-1.977-6.428-2.064-6.973
	c-0.057-0.291,0.025-0.471,0.105-0.568c0.105-0.129,0.271-0.197,0.469-0.197h0.414c0.029,0,0.043-0.006,0.045-0.006
	c0,0,0.006-0.012,0.006-0.039V65c0-0.043-0.004-0.063-0.008-0.07c-0.008,0-0.025-0.003-0.066-0.003c-0.105,0-0.258,0.009-0.469,0.02
	c-0.457,0.023-1.221,0.061-2.34,0.061c-1.568,0-2.348-0.046-2.721-0.068c-0.244-0.014-0.326,0-0.326,0l-0.004,0.651
	c0,0.048,0.008,0.063,0.01,0.063c0,0,0.014,0.01,0.064,0.01h0.561c0.689,0,1.006,0.602,1.293,1.271
	c0.199,0.49,3.449,9.266,3.627,10.135l0.008,0.039l-0.012,0.035C155.778,78.191,154.312,81.328,153.931,81.699"/>
<path fill="#414141" d="M175.343,17.154c-1.838-0.899-3.857-1.381-6.002-1.433c-10.002-0.237-21.492,10.564-28.756,24.141
	c-4.266-6.812-10.203-12.977-15.619-13.104c-1.449-0.035-2.82,0.237-4.074,0.808c-6.984,3.182-8.51,14.898-3.4,26.116
	c1.34,2.94,3.029,5.618,5.02,7.956l0.611-0.486c-1.338-1.797-2.502-3.771-3.457-5.869c-2.262-4.967-3.199-10.174-2.637-14.662
	c0.555-4.418,2.494-7.594,5.467-8.948c1.076-0.49,2.256-0.726,3.506-0.694c4.916,0.116,10.58,6.225,14.43,12.645l0.359,0.601
	l0.322-0.62c6.699-12.867,16.703-23.248,25.986-23.027c1.912,0.044,3.711,0.475,5.344,1.273c4.781,2.34,7.779,7.639,8.439,14.917
	c0.664,7.349-1.131,15.817-5.061,23.843c-4.799,9.802-15.598,23.341-25.01,33.427l1.043,0.188l0.037-0.029
	c9.609-8.621,21.541-22.865,27.404-34.842C188.063,41.444,186.288,22.512,175.343,17.154"/>
</svg>
